<?xml version="1.0" standalone="no"?>
<!DOCTYPE svg PUBLIC "-//W3C//DTD SVG 1.1//EN" "http://www.w3.org/Graphics/SVG/1.1/DTD/svg11.dtd" >
<svg xmlns="http://www.w3.org/2000/svg">
<metadata>
This is a custom SVG webfont generated by Font Squirrel.
Copyright   : 251 Dutch Design AlbertJan Pool 1995 Published by FontShop International FontFont release 15
</metadata>
<defs>
<font id="DINMediumRegular" horiz-adv-x="1091" >
<font-face units-per-em="2048" ascent="1638" descent="-410" />
<missing-glyph horiz-adv-x="491" />
<glyph unicode=" "  horiz-adv-x="491" />
<glyph unicode="&#x09;" horiz-adv-x="491" />
<glyph unicode="&#xa0;" horiz-adv-x="491" />
<glyph unicode="!" horiz-adv-x="679" d="M248 1458h254l-45 -1024h-164zM260 0v223h229v-223h-229z" />
<glyph unicode="&#x22;" horiz-adv-x="909" d="M160 1067v391h207v-391h-207zM543 1067v391h207v-391h-207z" />
<glyph unicode="#" horiz-adv-x="1376" d="M139 426v192h193l41 254h-166v193h194l64 401h219l-63 -401h278l64 401h217l-64 -401h160v-193h-189l-40 -254h161v-192h-192l-68 -426h-217l68 426h-281l-65 -426h-220l68 426h-162zM549 618h280l39 254h-278z" />
<glyph unicode="$" horiz-adv-x="1245" d="M61 180l148 146q74 -74 155.5 -107t182.5 -33v455l-53 6q-82 10 -156 42t-150.5 104.5t-76.5 249t110.5 291t306.5 132.5v185h168v-183q117 0 211 -41t180 -122l-141 -140q-53 51 -122.5 81t-145.5 30v-442l70 -11q98 -14 160.5 -39.5t146.5 -99.5t84 -268 q0 -180 -120 -292t-323 -130v-227h-168v221q-145 0 -257 47t-210 145zM326 1051q0 -86 43 -125t85 -55.5t93 -22.5v426q-104 -10 -162.5 -70.5t-58.5 -152.5zM678 190q115 10 178.5 67.5t63.5 152.5q0 100 -58 151q-35 31 -76 42t-108 22v-435z" />
<glyph unicode="%" horiz-adv-x="1724" d="M119 985v207q0 131 81 206t206 75q123 0 204.5 -76t81.5 -205v-207q0 -129 -81 -203.5t-205.5 -74.5t-205.5 73.5t-81 204.5zM276 991q0 -145 129.5 -145t129.5 145v195q0 147 -129.5 147t-129.5 -147v-195zM434 0l688 1458h166l-686 -1458h-168zM1032 266v207 q0 131 81 206t206 75q123 0 205 -76t82 -205v-207q0 -131 -81 -205.5t-206 -74.5q-123 0 -205 75.5t-82 204.5zM1190 272q0 -147 129 -147t129 147v195q0 147 -129 147t-129 -147v-195z" />
<glyph unicode="&#x26;" horiz-adv-x="1495" d="M139 422q0 137 77 230t212 182q-88 102 -120 171.5t-32 141.5q0 141 97.5 232t259.5 91q154 0 250 -92t96 -233q0 -80 -41 -143.5t-115 -114.5l-106 -74l307 -367q78 111 78 293h201q0 -279 -146 -448l244 -291h-268l-119 143q-76 -66 -167 -110.5t-237 -44.5 q-225 0 -348 116.5t-123 317.5zM346 426q0 -109 74 -178.5t190 -69.5q80 0 143.5 24.5t135.5 88.5l-346 411q-98 -68 -147.5 -127t-49.5 -149zM489 1145q0 -41 27 -86t86 -115l70 47q51 35 78.5 70t27.5 82q0 61 -40 103t-105.5 42t-104.5 -41t-39 -102z" />
<glyph unicode="'" horiz-adv-x="526" d="M160 1067v391h207v-391h-207z" />
<glyph unicode="(" horiz-adv-x="649" d="M176 240v979q0 80 8.5 131t37 102t60 87t107.5 112l141 -142l-63 -64q-31 -32 -56.5 -81t-25.5 -158v-954q0 -109 25.5 -157t54.5 -81l65 -65l-141 -142q-74 74 -106.5 110t-60 85t-37 107.5t-9.5 130.5z" />
<glyph unicode=")" horiz-adv-x="649" d="M119 -49q31 33 63 63q27 31 53.5 81t26.5 157v954q0 106 -24.5 153.5t-48 74t-70.5 73.5l143 144q59 -59 99 -104.5t68 -94.5t37 -104.5t9 -128.5v-979q0 -74 -9 -129.5t-40 -108.5q-29 -51 -57.5 -84t-106.5 -111z" />
<glyph unicode="*" horiz-adv-x="993" d="M125 954l235 125l-235 127l76 133l227 -141l-8 266h153l-8 -266l228 141l75 -133l-235 -127l235 -125l-75 -133l-228 142l8 -269h-153l8 269l-227 -142z" />
<glyph unicode="+" d="M104 461v194h345v342h194v-342h344v-194h-344v-344h-194v344h-345z" />
<glyph unicode="," horiz-adv-x="557" d="M160 238h237v-361l-237 -194v555z" />
<glyph unicode="-" horiz-adv-x="872" d="M137 471v195h598v-195h-598z" />
<glyph unicode="." horiz-adv-x="569" d="M160 0v250h250v-250h-250z" />
<glyph unicode="/" horiz-adv-x="778" d="M0 -152l584 1762h200l-583 -1762h-201z" />
<glyph unicode="0" d="M125 406v647q0 190 120 303.5t300 113.5q178 0 300 -113.5t122 -303.5v-647q0 -190 -120 -304t-302 -114q-180 0 -300 114t-120 304zM334 412q0 -109 56 -173.5t154.5 -64.5t156 65.5t57.5 172.5v635q0 109 -56.5 173t-156.5 64q-98 0 -154.5 -64.5t-56.5 -172.5v-635z " />
<glyph unicode="1" d="M233 981v231l285 246h209v-1458h-209v1231z" />
<glyph unicode="2" d="M129 0v186l561 682q78 94 78 194.5t-56.5 161t-156.5 60.5q-92 0 -153.5 -55t-61.5 -170h-209q0 184 118 297.5t306 113.5t305 -110.5t117 -298.5q0 -90 -32 -157.5t-105 -158.5l-457 -559h594v-186h-848z" />
<glyph unicode="3" d="M86 395h209q0 -109 69.5 -165t167.5 -56q104 0 171 64.5t67 177t-61.5 176t-182.5 63.5h-34v183h34q113 0 167.5 57t54.5 164q0 109 -60.5 167t-155.5 58q-98 0 -158.5 -56.5t-60.5 -152.5h-209q0 180 123 289t305 109q186 0 305 -113t119 -295q0 -113 -48 -190.5 t-134 -120.5q98 -43 151.5 -127t53.5 -217q0 -203 -127 -313.5t-319.5 -110.5t-319.5 102t-127 307z" />
<glyph unicode="4" d="M72 219v195l514 1044h225l-512 -1044h363v340h202v-340h156v-195h-156v-219h-202v219h-590z" />
<glyph unicode="5" d="M129 377h209q27 -203 213 -203q94 0 143 49t63.5 112.5t14.5 151.5q0 143 -47 224.5t-166 81.5q-84 0 -136 -37t-71 -94h-190v796h786v-186h-598v-385q80 84 242 84q84 0 149.5 -23.5t126 -84t87 -157t26.5 -219.5q0 -135 -23.5 -223t-99.5 -164q-53 -53 -130 -83.5 t-177 -30.5q-98 0 -179 30.5t-134.5 84t-81 125t-27.5 151.5z" />
<glyph unicode="6" d="M115 424q0 82 27.5 167t80.5 191l332 676h223l-313 -627q23 10 60.5 16.5t68.5 6.5q162 0 272.5 -116.5t110.5 -305.5q0 -201 -120 -322.5t-310 -121.5q-193 0 -312.5 117.5t-119.5 318.5zM324 428q0 -115 61 -184.5t159.5 -69.5t161 68.5t62.5 185.5q0 111 -60.5 181.5 t-162.5 70.5q-100 0 -160.5 -66.5t-60.5 -185.5z" />
<glyph unicode="7" d="M129 1042v416h868v-186l-487 -1272h-225l489 1272h-444v-230h-201z" />
<glyph unicode="8" d="M96 412q0 121 56.5 204.5t144.5 137.5q-78 47 -127 125.5t-49 187.5q0 178 120.5 290.5t303.5 112.5q180 0 303 -112.5t123 -290.5q0 -111 -48.5 -187.5t-127.5 -125.5q90 -55 145 -137t55 -205q0 -193 -128 -308.5t-322 -115.5q-193 0 -321 115.5t-128 308.5zM305 415.5 q0 -102.5 67.5 -172t172.5 -69.5q100 0 169.5 69.5t69.5 172t-68.5 173t-171 70.5t-171 -70.5t-68.5 -173zM330 1061q0 -98 59.5 -159.5t155.5 -61.5t156.5 62.5t60.5 158.5q0 98 -60.5 160.5t-156.5 62.5t-155.5 -63.5t-59.5 -159.5z" />
<glyph unicode="9" d="M115 1026q0 201 119.5 322.5t310.5 121.5q193 0 312.5 -117.5t119.5 -318.5q0 -82 -27.5 -167t-81.5 -191l-331 -676h-224l314 627q-53 -23 -131 -23q-162 0 -271.5 116t-109.5 306zM324 1030q0 -113 58 -182.5t163 -69.5q100 0 161.5 67.5t61.5 184.5q0 115 -61.5 184.5 t-162 69.5t-160.5 -68.5t-60 -185.5z" />
<glyph unicode=":" horiz-adv-x="620" d="M213 0v250h248v-250h-248zM213 584v250h248v-250h-248z" />
<glyph unicode=";" horiz-adv-x="620" d="M213 584v250h248v-250h-248zM217 238h238v-361l-238 -194v555z" />
<glyph unicode="&#x3c;" horiz-adv-x="2103" d="M106 567l803 803h269l-707 -702h1524v-199h-1524l707 -702h-269z" />
<glyph unicode="=" d="M104 272v195h883v-195h-883zM104 670v194h883v-194h-883z" />
<glyph unicode="&#x3e;" horiz-adv-x="2103" d="M106 469v199h1526l-706 702h268l803 -803l-803 -800h-268l706 702h-1526z" />
<glyph unicode="?" horiz-adv-x="1046" d="M145 1077q0 172 117 282.5t291 110.5t292 -106.5t118 -284.5q0 -66 -27 -128t-72 -124l-157 -221q-37 -51 -37 -110v-62h-209v72q0 61 15.5 106t53.5 97l160 215q31 41 47.5 77.5t16.5 77.5q0 88 -56.5 146.5t-144.5 58.5q-92 0 -145.5 -59.5t-53.5 -147.5h-209zM449 0 v223h231v-223h-231z" />
<glyph unicode="@" horiz-adv-x="1507" d="M131 334v651q0 121 27.5 206t92 150.5t151.5 94t202 28.5h299q117 0 201 -27.5t149.5 -92t94 -152.5t28.5 -207v-989l-196 4v102q-98 -117 -260 -116q-166 0 -246 89t-97.5 170t-17.5 234q0 145 17.5 229.5t92 174.5t249.5 90q160 0 258 -115v125q0 74 -16.5 126 t-57.5 93t-97.5 59.5t-121.5 18.5h-258q-70 0 -122 -17.5t-95 -60.5t-58.5 -91t-15.5 -128v-639q0 -86 20.5 -131t81.5 -94l-143 -144q-90 74 -126 151t-36 208zM760 479q0 -150 44 -232.5t162.5 -82.5t164 83t45.5 232q0 154 -44.5 236t-164.5 82q-119 0 -163 -83t-44 -235 z" />
<glyph unicode="A" horiz-adv-x="1280" d="M16 0l535 1458h178l535 -1458h-236l-100 293h-576l-100 -293h-236zM418 481h448l-221 647z" />
<glyph unicode="B" horiz-adv-x="1357" d="M190 0v1458h568q203 0 321.5 -106.5t118.5 -292.5q0 -111 -58.5 -194t-138.5 -115q92 -37 156 -123t64 -215q0 -197 -120 -304.5t-321 -107.5h-590zM412 199h348q113 0 176 61.5t63 161.5t-62.5 160.5t-176.5 60.5h-348v-444zM412 842h327q109 0 173.5 54t64.5 154.5 t-64.5 155t-173.5 54.5h-327v-418z" />
<glyph unicode="C" horiz-adv-x="1286" d="M137 729q0 256 21.5 372t148.5 242.5t355 126.5q205 0 343 -116.5t177 -331.5h-226q-27 117 -101.5 183.5t-192.5 66.5q-133 0 -201 -73t-85.5 -165t-17.5 -305q0 -223 16.5 -309t85 -160t202.5 -74q119 0 194.5 68t101.5 182h224q-37 -215 -176.5 -331.5t-343.5 -116.5 q-227 0 -354.5 127t-149 241.5t-21.5 372.5z" />
<glyph unicode="D" horiz-adv-x="1363" d="M190 0v1458h512q240 0 361 -120.5t142.5 -245.5t21.5 -353v-80q0 -186 -25.5 -306t-122.5 -216q-68 -68 -165 -102.5t-212 -34.5h-512zM412 199h268q158 0 228.5 77.5t84 176t13.5 286.5q0 182 -13.5 273.5t-64.5 148.5q-90 98 -248 99h-268v-1061z" />
<glyph unicode="E" horiz-adv-x="1234" d="M190 0v1458h932v-198h-710v-426h606v-197h-606v-438h710v-199h-932z" />
<glyph unicode="F" horiz-adv-x="1198" d="M190 0v1458h932v-198h-710v-445h606v-199h-606v-616h-222z" />
<glyph unicode="G" horiz-adv-x="1329" d="M137 729q0 256 21.5 372t148.5 242.5t355 126.5q223 0 360 -125.5t170 -326.5h-223q-29 121 -107 187.5t-200 66.5q-63 0 -120 -24.5t-103 -74t-63.5 -140.5t-17.5 -304q0 -223 16.5 -309t85 -160t202.5 -74q147 0 229 94.5t82 237.5v82h-311v188h532v-223 q0 -143 -29.5 -238.5t-101.5 -172.5q-82 -86 -181.5 -126t-219.5 -40q-227 0 -354.5 127t-149 241.5t-21.5 372.5z" />
<glyph unicode="H" horiz-adv-x="1415" d="M190 0v1458h222v-622h592v622h221v-1458h-221v637h-592v-637h-222z" />
<glyph unicode="I" horiz-adv-x="602" d="M190 0v1458h222v-1458h-222z" />
<glyph unicode="J" horiz-adv-x="1036" d="M27 129l147 145q45 -45 88 -66.5t119 -21.5q123 0 193.5 75t70.5 216v981h221v-997q0 -221 -137 -347t-348 -126q-111 0 -194.5 32.5t-159.5 108.5z" />
<glyph unicode="K" horiz-adv-x="1347" d="M190 0v1458h222v-733l596 733h270l-473 -571l522 -887h-260l-410 719l-245 -295v-424h-222z" />
<glyph unicode="L" horiz-adv-x="1175" d="M190 0v1458h222v-1259h702v-199h-924z" />
<glyph unicode="M" horiz-adv-x="1665" d="M190 0v1458h222l426 -907l417 907h222v-1458h-222v975l-335 -711h-164l-344 711v-975h-222z" />
<glyph unicode="N" horiz-adv-x="1478" d="M190 0v1458h203l674 -1024v1024h221v-1458h-203l-673 1026v-1026h-222z" />
<glyph unicode="O" horiz-adv-x="1323" d="M137 729q0 256 21.5 372t148.5 242.5t355 126.5q117 0 212 -38.5t182 -125.5t108.5 -204t21.5 -373q0 -264 -19.5 -374.5t-119.5 -211.5q-156 -156 -385 -155q-227 0 -354.5 127t-149 241.5t-21.5 372.5zM358 729q0 -229 15.5 -310t62.5 -133.5t103.5 -76t122.5 -23.5 q63 0 121.5 25t103.5 74t61.5 136t16.5 308q0 229 -15.5 310t-70.5 143q-39 43 -95.5 66.5t-121.5 23.5q-63 0 -122 -24.5t-104 -74t-61.5 -136.5t-16.5 -308z" />
<glyph unicode="P" horiz-adv-x="1288" d="M190 0v1458h553q211 0 339 -124t128 -318q0 -193 -129 -318t-338 -125h-331v-573h-222zM412 774h319q117 0 187.5 64.5t70.5 177.5q0 115 -70.5 179.5t-187.5 64.5h-319v-486z" />
<glyph unicode="Q" horiz-adv-x="1323" d="M137 729q0 256 21.5 372t148.5 242.5t355 126.5q117 0 212 -38.5t182 -125.5t108.5 -204t21.5 -373q0 -231 -13.5 -335.5t-80.5 -194.5l143 -142l-123 -123l-145 146q-131 -92 -305 -92q-227 0 -354.5 127t-149 241.5t-21.5 372.5zM358 729q0 -229 15.5 -310t62.5 -133.5 t103.5 -76t122.5 -23.5q84 0 149 47l-154 154l123 123l142 -141q27 51 35 132t8 228q0 229 -15.5 310t-70.5 143q-39 43 -95.5 66.5t-121.5 23.5q-63 0 -122 -24.5t-104 -74t-61.5 -136.5t-16.5 -308z" />
<glyph unicode="R" horiz-adv-x="1341" d="M190 0v1458h566q205 0 328.5 -117.5t123.5 -308.5q0 -150 -80.5 -251t-209.5 -136l335 -645h-258l-307 614h-276v-614h-222zM412 803h327q111 0 179.5 60.5t68.5 167t-67.5 168t-180.5 61.5h-327v-457z" />
<glyph unicode="S" horiz-adv-x="1208" d="M61 180l148 146q76 -76 167 -108t206 -32q143 0 222 58.5t79 165.5q0 100 -42 138t-77 52t-98 23l-172 24q-178 25 -280.5 121t-102.5 274q0 193 131 310.5t356 117.5q274 0 453 -165l-142 -140q-63 61 -141 87t-176 26q-125 0 -195.5 -64.5t-70.5 -162.5 q0 -86 56 -136.5t163 -66.5l166 -25q98 -14 160.5 -39.5t146.5 -99.5t84 -268q0 -199 -144.5 -313.5t-379.5 -114.5q-168 0 -291.5 44t-225.5 148z" />
<glyph unicode="T" horiz-adv-x="1146" d="M61 1260v198h1024v-198h-401v-1260h-221v1260h-402z" />
<glyph unicode="U" horiz-adv-x="1382" d="M168 492v966h221v-956q0 -145 81 -230.5t220 -85.5q137 0 220 85t83 231v956h221v-966q0 -223 -148 -363.5t-376 -140.5q-225 0 -373.5 140.5t-148.5 363.5z" />
<glyph unicode="V" horiz-adv-x="1155" d="M10 1458h230l335 -1061l336 1061h234l-483 -1458h-173z" />
<glyph unicode="W" horiz-adv-x="1783" d="M23 1458h233l254 -1042l293 1042h178l293 -1042l254 1042h233l-381 -1458h-192l-297 1022l-295 -1022h-193z" />
<glyph unicode="X" horiz-adv-x="1183" d="M20 0l451 748l-422 710h254l287 -522l289 522h254l-422 -710l452 -748h-256l-317 559l-316 -559h-254z" />
<glyph unicode="Y" horiz-adv-x="1114" d="M10 1458h242l305 -641l305 641h242l-436 -858v-600h-222v600z" />
<glyph unicode="Z" horiz-adv-x="1130" d="M98 0v190l674 1070h-645v198h905v-180l-678 -1079h678v-199h-934z" />
<glyph unicode="[" horiz-adv-x="710" d="M176 -152v1762h447v-187h-238v-1388h238v-187h-447z" />
<glyph unicode="\" horiz-adv-x="778" d="M0 1593h201l577 -1745h-200z" />
<glyph unicode="]" horiz-adv-x="710" d="M88 33h242v1392h-242v185h447v-1762h-447v185z" />
<glyph unicode="^" horiz-adv-x="1169" d="M137 821l352 652h191l350 -652h-217l-229 424l-230 -424h-217z" />
<glyph unicode="_" horiz-adv-x="1169" d="M0 -209h1169v-143h-1169v143z" />
<glyph unicode="`" horiz-adv-x="1024" d="M233 1559h232l153 -332h-157z" />
<glyph unicode="a" horiz-adv-x="1085" d="M88 305q0 135 92 217t266 82h275v74q0 100 -53.5 147t-173.5 47q-84 0 -134.5 -21.5t-93.5 -78.5l-137 129q72 82 157 116t216 34q428 0 428 -357v-694h-205v94q-59 -59 -118.5 -82.5t-157.5 -23.5q-184 0 -272.5 90t-88.5 227zM291 309q0 -147 190 -147q74 0 114 10 t83 52t43 151v84h-244q-186 0 -186 -150z" />
<glyph unicode="b" horiz-adv-x="1132" d="M166 0v1458h209v-524q53 63 118.5 90t153.5 27q160 0 241 -81t104.5 -194.5t23.5 -255.5q0 -152 -22.5 -260t-94.5 -180q-92 -92 -254 -92q-90 0 -153.5 26.5t-120.5 96.5v-111h-205zM375 520q0 -166 44 -256t173 -90t172 90t43 256q0 164 -43 254t-172 90t-173 -91 t-44 -253z" />
<glyph unicode="c" horiz-adv-x="993" d="M113 520q0 272 133 401.5t329 129.5q111 0 189 -33t154 -113l-144 -139q-90 98 -199 98q-123 0 -188 -85t-65 -259q0 -176 65.5 -261t187.5 -85q63 0 104.5 20.5t94.5 77.5l144 -137q-139 -147 -343 -147q-197 0 -329.5 129t-132.5 403z" />
<glyph unicode="d" horiz-adv-x="1132" d="M117 520q0 193 30.5 288t104.5 169t233 74q88 0 152.5 -26t120.5 -91v524h209v-1458h-205v111q-55 -68 -119.5 -95.5t-155.5 -27.5q-78 0 -143 23.5t-122.5 81t-81 171t-23.5 256.5zM326 520q0 -166 44 -256t173 -90t172 90t43 256q0 164 -43 254t-172 90t-173 -91 t-44 -253z" />
<glyph unicode="e" horiz-adv-x="1103" d="M113 520q0 250 118.5 390.5t321.5 140.5q205 0 322.5 -138.5t117.5 -361.5v-92h-674q0 -137 69 -214t196 -77q86 0 139 23.5t113 82.5l133 -124q-84 -84 -171 -123t-218 -39q-215 0 -341 124.5t-126 407.5zM319 604h467q0 76 -28 141q-25 59 -79 95.5t-126 36.5 q-74 0 -127 -35t-80 -96.5t-27 -141.5z" />
<glyph unicode="f" horiz-adv-x="671" d="M80 860v160h119v160q0 123 72.5 205.5t211.5 82.5h131v-178h-92q-115 0 -114 -121v-149h206v-160h-206v-860h-209v860h-119z" />
<glyph unicode="g" horiz-adv-x="1124" d="M117 539q0 152 23.5 252t103.5 180t239 80q88 0 151.5 -27t121.5 -96v110h202v-1032q0 -193 -120.5 -315.5t-323.5 -122.5q-117 0 -201 30.5t-166 106.5l134 133q53 -49 101 -70.5t124 -21.5q125 0 184.5 75t59.5 189v133q-53 -63 -119 -90.5t-150 -27.5q-76 0 -139 23.5 t-120.5 80.5t-81 156.5t-23.5 253.5zM326 539q0 -152 42 -239t171 -87q127 0 169 86t42 240q0 197 -55.5 261t-155.5 64q-127 0 -170 -87.5t-43 -237.5z" />
<glyph unicode="h" horiz-adv-x="1159" d="M166 0v1458h209v-524q109 117 268 117q170 0 265.5 -103.5t95.5 -277.5v-670h-209v637q0 113 -57.5 170t-151.5 57q-92 0 -151.5 -57t-59.5 -170v-637h-209z" />
<glyph unicode="i" horiz-adv-x="540" d="M160 1243v221h221v-221h-221zM166 0v1038h209v-1038h-209z" />
<glyph unicode="j" horiz-adv-x="540" d="M-39 -246h92q61 0 87 30t26 91v1163h209v-1175q0 -123 -72 -205t-213 -82h-129v178zM160 1243v221h221v-221h-221z" />
<glyph unicode="k" horiz-adv-x="1122" d="M166 0v1458h209v-899l403 479h254l-360 -407l405 -631h-258l-291 479l-153 -174v-305h-209z" />
<glyph unicode="l" horiz-adv-x="636" d="M160 287v1171h209v-1159q0 -61 25.5 -91t86.5 -30h92v-178h-129q-141 0 -212.5 81t-71.5 206z" />
<glyph unicode="m" horiz-adv-x="1796" d="M166 0v1038h205v-104q51 55 124.5 86t151.5 31q197 0 295 -152q125 152 326 152q80 0 147.5 -25t118.5 -75t78.5 -124.5t27.5 -162.5v-664h-208v633q0 117 -57.5 174t-151.5 57q-92 0 -153.5 -56t-61.5 -165v-643h-209v633q0 117 -57.5 174t-151.5 57t-154.5 -58 t-60.5 -173v-633h-209z" />
<glyph unicode="n" horiz-adv-x="1163" d="M166 0v1038h205v-104q109 117 276 117q80 0 144.5 -23.5t117 -75t76 -123t23.5 -165.5v-664h-209v633q0 117 -57.5 174t-151.5 57t-154.5 -58t-60.5 -173v-633h-209z" />
<glyph unicode="o" horiz-adv-x="1099" d="M117 520q0 139 26.5 237.5t89 163t138 97.5t178.5 33q100 0 178 -33t140.5 -98.5t89 -161.5t26.5 -237.5t-26.5 -240t-96.5 -169.5q-55 -57 -132 -90t-179 -33q-100 0 -177 32.5t-139.5 98t-89 162t-26.5 239.5zM326 520q0 -109 13 -174t66.5 -118.5t143.5 -53.5 q92 0 144 52.5t66.5 123t14.5 170.5q0 109 -13 174.5t-59 110.5q-59 59 -153 59q-92 0 -143.5 -51t-65.5 -122t-14 -171z" />
<glyph unicode="p" horiz-adv-x="1132" d="M166 -420v1458h205v-110q55 68 119.5 95.5t154.5 27.5q78 0 143.5 -23.5t123 -81t81 -171t23.5 -255.5q0 -152 -22.5 -260t-94.5 -180q-92 -92 -252 -92q-90 0 -153.5 25.5t-118.5 92.5v-526h-209zM375 520q0 -166 44 -256t173 -90t172 90t43 256q0 164 -43 254t-172 90 t-173 -91t-44 -253z" />
<glyph unicode="q" horiz-adv-x="1132" d="M117 520q0 193 30.5 288t104.5 169t235 74q90 0 154 -27t121 -96v110h205v-1458h-209v526q-53 -63 -121 -90.5t-152 -27.5q-160 0 -240.5 81t-104 194.5t-23.5 256.5zM326 520q0 -166 44 -256t173 -90t172 90t43 256q0 164 -43 254t-172 90t-173 -91t-44 -253z" />
<glyph unicode="r" horiz-adv-x="899" d="M166 0v1038h205v-112q41 55 115.5 90t160.5 35q82 0 136.5 -20.5t111.5 -78.5l-158 -157q-35 35 -70.5 52t-84.5 17q-88 0 -147.5 -63.5t-59.5 -169.5v-631h-209z" />
<glyph unicode="s" horiz-adv-x="1021" d="M66 137l137 137q57 -59 135 -83.5t164 -24.5q100 0 163.5 36t63.5 107q0 57 -32.5 90t-106.5 33l-166 14q-152 12 -229.5 82t-77.5 205q0 150 109.5 234t281.5 84q121 0 217 -28t168 -89l-131 -133q-45 39 -113.5 57.5t-142.5 18.5q-92 0 -140.5 -36t-48.5 -98 q0 -51 32 -80.5t112 -37.5l164 -15q152 -12 230.5 -83.5t78.5 -209.5q0 -158 -120 -243.5t-312 -85.5q-141 0 -244.5 31.5t-191.5 117.5z" />
<glyph unicode="t" horiz-adv-x="700" d="M72 860v160h118v315h209v-315h201v-160h-201v-561q0 -121 115 -121h86v-178h-125q-137 0 -211 84t-74 205v571h-118z" />
<glyph unicode="u" horiz-adv-x="1163" d="M156 375v663h209v-632q0 -117 57 -174.5t151.5 -57.5t154.5 58.5t60 173.5v632h209v-1038h-204v104q-109 -117 -277 -116q-80 0 -144.5 23.5t-116.5 74.5t-75.5 123t-23.5 166z" />
<glyph unicode="v" horiz-adv-x="964" d="M16 1038h222l245 -731l244 731h221l-381 -1038h-170z" />
<glyph unicode="w" horiz-adv-x="1521" d="M16 1038h222l200 -731l242 731h162l239 -731l201 731h223l-323 -1038h-178l-244 725l-242 -725h-180z" />
<glyph unicode="x" horiz-adv-x="1030" d="M45 0l356 530l-342 508h252l205 -338l203 338h252l-340 -508l354 -530h-252l-217 354l-219 -354h-252z" />
<glyph unicode="y" horiz-adv-x="958" d="M16 1038h222l247 -731l242 731h223l-458 -1245q-29 -82 -73 -126t-97.5 -61.5t-118.5 -17.5h-84v189h53q66 0 95.5 22.5t54.5 87.5l57 162z" />
<glyph unicode="z" horiz-adv-x="960" d="M88 0v166l516 686h-487v186h745v-166l-520 -686h520v-186h-774z" />
<glyph unicode="{" horiz-adv-x="833" d="M92 637v184h76q33 0 55.5 9.5t51 38t28.5 114.5v342q0 76 16.5 125t71.5 104.5t205 55.5h145v-187h-79q-92 0 -121 -29.5t-29 -129.5v-330q0 -90 -37 -134t-98 -71q78 -35 106.5 -85t28.5 -120v-329q0 -100 28.5 -130t121.5 -30h79v-187h-145q-150 0 -221.5 72t-71.5 213 v342q0 86 -38 124t-97 38h-76z" />
<glyph unicode="|" horiz-adv-x="692" d="M242 -152v1762h209v-1762h-209z" />
<glyph unicode="}" horiz-adv-x="833" d="M92 35h80q92 0 121 29.5t29 130.5v329q0 72 27.5 120t109.5 85q-63 29 -100 72t-37 133v330q0 100 -29 129.5t-121 29.5h-80v187h146q150 0 221 -72t71 -213v-342q0 -86 38 -124t100 -38h73v-184h-73q-33 0 -57.5 -10.5t-52.5 -38t-28 -113.5v-342q0 -76 -16 -125 t-71.5 -104.5t-204.5 -55.5h-146v187z" />
<glyph unicode="~" horiz-adv-x="1175" d="M88 571q90 90 155.5 125t145.5 35q55 0 104.5 -15.5t109 -45t99 -43t78.5 -13.5q49 0 82 15.5t92 75.5l133 -132q-90 -90 -155.5 -124.5t-147.5 -34.5q-53 0 -105 16t-112.5 46t-97.5 42t-76 12q-49 0 -81.5 -15t-92.5 -75z" />
<glyph unicode="&#xa1;" horiz-adv-x="679" d="M178 -420l45 1024h164l45 -1024h-254zM190 815v223h230v-223h-230z" />
<glyph unicode="&#xa2;" horiz-adv-x="1019" d="M113 750q0 223 101 358t273 164v186h164v-184q166 -20 289 -152l-139 -135q-76 84 -168 98v-671q92 14 168 98l139 -135q-123 -131 -289 -152v-225h-164v227q-170 29 -272 163.5t-102 359.5zM322 750q0 -164 56 -241t128 -91v663q-70 -14 -111 -70.5t-57 -113.5t-16 -147 z" />
<glyph unicode="&#xa3;" horiz-adv-x="1155" d="M88 641v160h127v196q0 219 139.5 346t347.5 127q111 0 195 -32.5t160 -108.5l-148 -145q-45 45 -88 66.5t-119 21.5q-123 0 -193.5 -75t-70.5 -216v-180h264v-160h-264v-442h619v-199h-842v641h-127z" />
<glyph unicode="&#xa4;" horiz-adv-x="1361" d="M139 166l150 151q-78 113 -78 254.5t78 253.5l-150 150l137 137l150 -149q111 76 254 75.5t254 -75.5l151 149l138 -137l-152 -150q78 -113 78 -254t-78 -254l152 -151l-138 -137l-151 151q-113 -78 -254 -78t-254 78l-150 -151zM401 571q0 -115 82 -196.5t197 -81.5 t196.5 82t81.5 196.5t-80.5 195.5t-197.5 81q-115 0 -197 -80t-82 -197z" />
<glyph unicode="&#xa5;" horiz-adv-x="1114" d="M10 1458h242l307 -643l303 643h240l-299 -594h178v-159h-260l-53 -105v-106h313v-160h-313v-334h-222v334h-313v160h313v106l-53 105h-260v159h178z" />
<glyph unicode="&#xa7;" horiz-adv-x="1112" d="M152 530q0 113 58 196t140 124q-82 41 -127 104.5t-45 169.5q0 150 102.5 248t278.5 98q178 0 281.5 -93t103.5 -244h-201q0 78 -51 116.5t-133 38.5q-180 0 -180 -158q0 -59 41 -101t112 -64l144 -43q143 -43 217 -137.5t74 -243.5q0 -113 -58.5 -195t-140.5 -125 q84 -37 132 -106.5t48 -182.5q0 -170 -112.5 -267t-278.5 -97q-164 0 -280.5 89t-116.5 259h205q0 -74 52 -118t140 -44q186 0 186 172q0 59 -38.5 107.5t-120.5 72.5l-144 44q-143 43 -215.5 135.5t-72.5 244.5zM356 535q0 -55 14.5 -94.5t55.5 -82.5t133 -43q90 0 130 43 t56.5 81t16.5 96q0 106 -60 163q-29 27 -63.5 42.5t-79.5 15.5q-92 0 -147.5 -59.5t-55.5 -161.5z" />
<glyph unicode="&#xa8;" horiz-adv-x="1024" d="M197 1237v221h188v-221h-188zM639 1237v221h188v-221h-188z" />
<glyph unicode="&#xa9;" horiz-adv-x="1765" d="M141 729q0 307 217 524t524.5 217t524.5 -217t217 -524t-217 -524t-524.5 -217t-524.5 217t-217 524zM291 729q0 -254 172 -428t419.5 -174t420 174t172.5 428t-172.5 428t-420 174t-419.5 -174t-172 -428zM528 729q0 186 99.5 298t267.5 112q145 0 268 -107l-94 -96 q-82 72 -174 72q-111 0 -166 -76t-55 -203t54 -202.5t167 -75.5q55 0 90 14t84 57l94 -96q-119 -106 -268 -107q-166 0 -266.5 111t-100.5 299z" />
<glyph unicode="&#xaa;" horiz-adv-x="925" d="M106 872q0 109 74 174.5t211 65.5h215v57q0 78 -41 115t-137 37q-68 0 -104.5 -16.5t-73.5 -63.5l-113 107q57 68 125 93t174 25q168 0 254 -71.5t86 -212.5v-553h-166v73q-45 -45 -93 -63t-124 -18q-147 0 -200.5 53t-70 98t-16.5 100zM272 877q0 -113 146 -113 q59 0 92 8t64.5 39t31.5 117v65h-190q-70 0 -107 -30.5t-37 -85.5z" />
<glyph unicode="&#xab;" horiz-adv-x="1212" d="M76 557l471 469v-252l-219 -217l219 -219v-252zM594 557l471 469v-252l-221 -217l221 -219v-252z" />
<glyph unicode="&#xac;" d="M98 489v195h893v-483h-194v288h-699z" />
<glyph unicode="&#xad;" horiz-adv-x="872" d="M137 471v195h598v-195h-598z" />
<glyph unicode="&#xae;" horiz-adv-x="1765" d="M141 729q0 307 217 524t524.5 217t524.5 -217t217 -524t-217 -524t-524.5 -217t-524.5 217t-217 524zM289 729q0 -252 172 -428t422 -176t421 175t171 429t-171 429t-421 175t-422 -174t-172 -430zM625 330v800h301q113 0 185.5 -70.5t72.5 -174.5q0 -82 -43 -137.5 t-115 -79.5l178 -338h-166l-164 317h-102v-317h-147zM772 764h135q57 0 94 35t37 86q0 53 -35.5 87t-95.5 34h-135v-242z" />
<glyph unicode="&#xaf;" horiz-adv-x="491" d="M-317 123v149h634v-149h-634z" />
<glyph unicode="&#xb0;" horiz-adv-x="964" d="M125 1124q0 145 104.5 252t252 107t253 -105.5t105.5 -253t-104.5 -252t-254.5 -104.5q-147 0 -251.5 104.5t-104.5 251.5zM297 1124q0 -78 53 -133t131 -55q80 0 133.5 53t53.5 135q0 80 -53.5 135.5t-133.5 55.5q-78 0 -131 -55.5t-53 -135.5z" />
<glyph unicode="&#xb1;" d="M104 0v195h883v-195h-883zM104 647v195h345v344h194v-344h344v-195h-344v-346h-194v346h-345z" />
<glyph unicode="&#xb2;" d="M129 0v186l561 682q78 94 78 194.5t-56.5 161t-156.5 60.5q-92 0 -153.5 -55t-61.5 -170h-209q0 184 118 297.5t306 113.5t305 -110.5t117 -298.5q0 -90 -32 -157.5t-105 -158.5l-457 -559h594v-186h-848z" />
<glyph unicode="&#xb3;" d="M86 395h209q0 -109 69.5 -165t167.5 -56q104 0 171 64.5t67 177t-61.5 176t-182.5 63.5h-34v183h34q113 0 167.5 57t54.5 164q0 109 -60.5 167t-155.5 58q-98 0 -158.5 -56.5t-60.5 -152.5h-209q0 180 123 289t305 109q186 0 305 -113t119 -295q0 -113 -48 -190.5 t-134 -120.5q98 -43 151.5 -127t53.5 -217q0 -203 -127 -313.5t-319.5 -110.5t-319.5 102t-127 307z" />
<glyph unicode="&#xb4;" horiz-adv-x="1024" d="M406 1227l153 332h232l-228 -332h-157z" />
<glyph unicode="&#xb5;" horiz-adv-x="1165" d="M156 -420v1458h209v-632q0 -117 58 -174.5t152 -57.5q92 0 152.5 58.5t60.5 173.5v632h209v-1038h-204v104q-109 -117 -275 -116q-92 0 -153 51v-459h-209z" />
<glyph unicode="&#xb6;" horiz-adv-x="1304" d="M78 1051q0 182 126 294.5t335 112.5h575v-1878h-209v1680h-221v-1680h-209v1069q-168 0 -282.5 119t-114.5 283z" />
<glyph unicode="&#xb8;" horiz-adv-x="1024" d="M342 -432l143 301h168l-104 -301h-207z" />
<glyph unicode="&#xb9;" d="M233 981v231l285 246h209v-1458h-209v1231z" />
<glyph unicode="&#xba;" horiz-adv-x="937" d="M125 1044q0 115 20.5 190t70.5 127t111.5 78.5t141.5 26.5q78 0 141.5 -27.5t112.5 -77.5t70.5 -128t21.5 -189q0 -115 -20.5 -190.5t-77.5 -134.5q-43 -45 -104.5 -71.5t-143.5 -26.5q-80 0 -141.5 26.5t-110.5 77.5t-70.5 128.5t-21.5 190.5zM295 1044q0 -82 10 -136 t51 -95t113 -41q74 0 114 40t50 96.5t10 135.5q0 90 -8 138.5t-45 85.5q-47 47 -121 47q-72 0 -113 -41t-51 -92.5t-10 -137.5z" />
<glyph unicode="&#xbb;" horiz-adv-x="1212" d="M147 86v252l222 219l-222 217v252l474 -469zM666 86v252l219 219l-219 217v252l473 -469z" />
<glyph unicode="&#xbf;" horiz-adv-x="1046" d="M84 -39q0 70 24.5 128t71.5 124l160 221q37 51 37 111v61h209v-74q0 -63 -15.5 -105t-56.5 -97l-158 -215q-31 -41 -47 -78t-16 -78q0 -88 55 -145.5t144 -57.5q92 0 146 58.5t54 146.5h209q0 -172 -116.5 -282.5t-292.5 -110.5q-172 0 -290 107.5t-118 285.5zM367 815 v223h229v-223h-229z" />
<glyph unicode="&#xc0;" horiz-adv-x="1280" d="M16 0l535 1458h178l535 -1458h-236l-100 293h-576l-100 -293h-236zM354 1931h232l153 -332h-157zM418 481h448l-221 647z" />
<glyph unicode="&#xc1;" horiz-adv-x="1280" d="M16 0l535 1458h178l535 -1458h-236l-100 293h-576l-100 -293h-236zM418 481h448l-221 647zM528 1599l154 332h231l-227 -332h-158z" />
<glyph unicode="&#xc2;" horiz-adv-x="1280" d="M16 0l535 1458h178l535 -1458h-236l-100 293h-576l-100 -293h-236zM283 1599l264 330h176l264 -330h-174l-178 199l-178 -199h-174zM418 481h448l-221 647z" />
<glyph unicode="&#xc3;" horiz-adv-x="1280" d="M16 0l535 1458h178l535 -1458h-236l-100 293h-576l-100 -293h-236zM281 1747q63 63 112 88t101 25q41 0 74.5 -11.5t73.5 -35t63.5 -32.5t54.5 -9q29 0 55.5 12t65.5 51l98 -96q-63 -63 -112.5 -88t-100.5 -25q-39 0 -76 12.5t-91 43t-101 30.5q-33 0 -55.5 -10 t-63.5 -51zM418 481h448l-221 647z" />
<glyph unicode="&#xc4;" horiz-adv-x="1280" d="M16 0l535 1458h178l535 -1458h-236l-100 293h-576l-100 -293h-236zM319 1610v221h189v-221h-189zM418 481h448l-221 647zM762 1610v221h188v-221h-188z" />
<glyph unicode="&#xc5;" horiz-adv-x="1280" d="M16 0l535 1458h178l535 -1458h-236l-100 293h-576l-100 -293h-236zM379 1792q0 106 74.5 181t181 75t181.5 -75t75 -181t-75 -181t-181.5 -75t-181 75t-74.5 181zM418 481h448l-221 647zM504 1792q0 -53 38 -91t93 -38q53 0 92 37t39 92q0 53 -38 91t-93 38 q-53 0 -92 -37t-39 -92z" />
<glyph unicode="&#xc6;" horiz-adv-x="1949" d="M10 0l766 1458h1061v-198h-711v-429h607v-198h-607v-434h711v-199h-932v332h-481l-172 -332h-242zM520 520h385v740z" />
<glyph unicode="&#xc7;" horiz-adv-x="1286" d="M137 729q0 256 21.5 372t148.5 242.5t355 126.5q205 0 343 -116.5t177 -331.5h-226q-27 117 -101.5 183.5t-192.5 66.5q-133 0 -201 -73t-85.5 -165t-17.5 -305q0 -223 16.5 -309t85 -160t202.5 -74q119 0 194.5 68t101.5 182h224q-37 -215 -176.5 -331.5t-343.5 -116.5 q-227 0 -354.5 127t-149 241.5t-21.5 372.5zM455 -432l143 301h168l-104 -301h-207z" />
<glyph unicode="&#xc8;" horiz-adv-x="1234" d="M190 0v1458h932v-198h-710v-426h606v-197h-606v-438h710v-199h-932zM358 1931h232l153 -332h-157z" />
<glyph unicode="&#xc9;" horiz-adv-x="1234" d="M190 0v1458h932v-198h-710v-426h606v-197h-606v-438h710v-199h-932zM530 1599l154 332h231l-227 -332h-158z" />
<glyph unicode="&#xca;" horiz-adv-x="1234" d="M190 0v1458h932v-198h-710v-426h606v-197h-606v-438h710v-199h-932zM285 1599l264 330h176l264 -330h-174l-178 199l-178 -199h-174z" />
<glyph unicode="&#xcb;" horiz-adv-x="1234" d="M190 0v1458h932v-198h-710v-426h606v-197h-606v-438h710v-199h-932zM322 1610v221h188v-221h-188zM764 1610v221h188v-221h-188z" />
<glyph unicode="&#xcc;" horiz-adv-x="602" d="M190 0v1458h222v-1458h-222zM190 1931h232l153 -332h-157z" />
<glyph unicode="&#xcd;" horiz-adv-x="602" d="M190 0v1458h222v-1458h-222zM190 1599l154 332h231l-227 -332h-158z" />
<glyph unicode="&#xce;" horiz-adv-x="602" d="M190 0v1458h222v-1458h-222zM190 1599l265 330h176l264 -330h-174l-178 199l-178 -199h-175z" />
<glyph unicode="&#xcf;" horiz-adv-x="602" d="M190 0v1458h222v-1458h-222zM190 1610v221h189v-221h-189zM633 1610v221h188v-221h-188z" />
<glyph unicode="&#xd1;" horiz-adv-x="1476" d="M190 0v1458h203l674 -1024v1024h221v-1458h-203l-673 1026v-1026h-222zM387 1747q63 63 112.5 88t100.5 25q41 0 75 -11.5t73.5 -35t63.5 -32.5t54 -9q29 0 55.5 12t65.5 51l98 -96q-63 -63 -112 -88t-101 -25q-39 0 -75.5 12.5t-91 43t-101.5 30.5q-33 0 -55.5 -10 t-63.5 -51z" />
<glyph unicode="&#xd2;" horiz-adv-x="1325" d="M137 729q0 256 21.5 372t148.5 242.5t355 126.5q117 0 212 -38.5t182 -125.5t108.5 -204t21.5 -373q0 -264 -19.5 -374.5t-119.5 -211.5q-156 -156 -385 -155q-227 0 -354.5 127t-149 241.5t-21.5 372.5zM358 729q0 -229 15.5 -310t62.5 -133.5t103.5 -76t122.5 -23.5 q63 0 121.5 25t103.5 74t61.5 136t16.5 308q0 229 -15.5 310t-70.5 143q-39 43 -95.5 66.5t-121.5 23.5q-63 0 -122 -24.5t-104 -74t-61.5 -136.5t-16.5 -308zM383 1931h231l154 -332h-158z" />
<glyph unicode="&#xd3;" horiz-adv-x="1325" d="M137 729q0 256 21.5 372t148.5 242.5t355 126.5q117 0 212 -38.5t182 -125.5t108.5 -204t21.5 -373q0 -264 -19.5 -374.5t-119.5 -211.5q-156 -156 -385 -155q-227 0 -354.5 127t-149 241.5t-21.5 372.5zM358 729q0 -229 15.5 -310t62.5 -133.5t103.5 -76t122.5 -23.5 q63 0 121.5 25t103.5 74t61.5 136t16.5 308q0 229 -15.5 310t-70.5 143q-39 43 -95.5 66.5t-121.5 23.5q-63 0 -122 -24.5t-104 -74t-61.5 -136.5t-16.5 -308zM555 1599l154 332h231l-227 -332h-158z" />
<glyph unicode="&#xd4;" horiz-adv-x="1325" d="M137 729q0 256 21.5 372t148.5 242.5t355 126.5q117 0 212 -38.5t182 -125.5t108.5 -204t21.5 -373q0 -264 -19.5 -374.5t-119.5 -211.5q-156 -156 -385 -155q-227 0 -354.5 127t-149 241.5t-21.5 372.5zM309 1599l264 330h177l264 -330h-174l-178 199l-179 -199h-174z M358 729q0 -229 15.5 -310t62.5 -133.5t103.5 -76t122.5 -23.5q63 0 121.5 25t103.5 74t61.5 136t16.5 308q0 229 -15.5 310t-70.5 143q-39 43 -95.5 66.5t-121.5 23.5q-63 0 -122 -24.5t-104 -74t-61.5 -136.5t-16.5 -308z" />
<glyph unicode="&#xd5;" horiz-adv-x="1325" d="M137 729q0 256 21.5 372t148.5 242.5t355 126.5q117 0 212 -38.5t182 -125.5t108.5 -204t21.5 -373q0 -264 -19.5 -374.5t-119.5 -211.5q-156 -156 -385 -155q-227 0 -354.5 127t-149 241.5t-21.5 372.5zM309 1747q63 63 112.5 88t100.5 25q41 0 75 -11.5t74 -35 t63.5 -32.5t53.5 -9q29 0 55.5 12t65.5 51l99 -96q-63 -63 -112.5 -88t-100.5 -25q-39 0 -76 12.5t-91.5 43t-101.5 30.5q-33 0 -55 -10t-63 -51zM358 729q0 -229 15.5 -310t62.5 -133.5t103.5 -76t122.5 -23.5q63 0 121.5 25t103.5 74t61.5 136t16.5 308q0 229 -15.5 310 t-70.5 143q-39 43 -95.5 66.5t-121.5 23.5q-63 0 -122 -24.5t-104 -74t-61.5 -136.5t-16.5 -308z" />
<glyph unicode="&#xd6;" horiz-adv-x="1325" d="M137 729q0 256 21.5 372t148.5 242.5t355 126.5q117 0 212 -38.5t182 -125.5t108.5 -204t21.5 -373q0 -264 -19.5 -374.5t-119.5 -211.5q-156 -156 -385 -155q-227 0 -354.5 127t-149 241.5t-21.5 372.5zM346 1610v221h189v-221h-189zM358 729q0 -229 15.5 -310 t62.5 -133.5t103.5 -76t122.5 -23.5q63 0 121.5 25t103.5 74t61.5 136t16.5 308q0 229 -15.5 310t-70.5 143q-39 43 -95.5 66.5t-121.5 23.5q-63 0 -122 -24.5t-104 -74t-61.5 -136.5t-16.5 -308zM788 1610v221h189v-221h-189z" />
<glyph unicode="&#xd8;" horiz-adv-x="1335" d="M137 729q0 256 21.5 372t148.5 242.5t355 126.5q68 0 129 -14t116 -41l62 133h170l-107 -221l15 -12q96 -96 117.5 -213t21.5 -373q0 -264 -19.5 -374.5t-119.5 -211.5q-156 -156 -385 -155q-68 0 -128.5 14t-115.5 41l-64 -133h-168l105 221l-12 12q-98 98 -120 213 t-22 373zM360 729q0 -301 41 -389l424 887q-74 45 -163 45q-63 0 -120 -24.5t-103 -74t-62.5 -136.5t-16.5 -308zM500 231q72 -45 162 -45q63 0 121.5 25t103.5 74t61.5 136t16.5 308q0 307 -41 389z" />
<glyph unicode="&#xd9;" horiz-adv-x="1382" d="M168 492v966h221v-956q0 -145 81 -230.5t220 -85.5q137 0 220 85t83 231v956h221v-966q0 -223 -148 -363.5t-376 -140.5q-225 0 -373.5 140.5t-148.5 363.5zM414 1931h231l154 -332h-158z" />
<glyph unicode="&#xda;" horiz-adv-x="1382" d="M168 492v966h221v-956q0 -145 81 -230.5t220 -85.5q137 0 220 85t83 231v956h221v-966q0 -223 -148 -363.5t-376 -140.5q-225 0 -373.5 140.5t-148.5 363.5zM586 1599l153 332h232l-228 -332h-157z" />
<glyph unicode="&#xdb;" horiz-adv-x="1382" d="M168 492v966h221v-956q0 -145 81 -230.5t220 -85.5q137 0 220 85t83 231v956h221v-966q0 -223 -148 -363.5t-376 -140.5q-225 0 -373.5 140.5t-148.5 363.5zM340 1599l264 330h176l264 -330h-174l-178 199l-178 -199h-174z" />
<glyph unicode="&#xdc;" horiz-adv-x="1382" d="M168 492v966h221v-956q0 -145 81 -230.5t220 -85.5q137 0 220 85t83 231v956h221v-966q0 -223 -148 -363.5t-376 -140.5q-225 0 -373.5 140.5t-148.5 363.5zM377 1610v221h188v-221h-188zM819 1610v221h189v-221h-189z" />
<glyph unicode="&#xdd;" horiz-adv-x="1114" d="M10 1458h242l305 -641l305 641h242l-436 -858v-600h-222v600zM479 1593l154 332h231l-227 -332h-158z" />
<glyph unicode="&#xdf;" horiz-adv-x="1157" d="M166 0v1069q0 199 117.5 301.5t320.5 102.5q188 0 304 -88.5t116 -262.5q0 -86 -33 -142t-94 -95q68 -35 98.5 -88.5t30.5 -147.5v-338q0 -154 -84 -231q-86 -80 -233 -80h-109v178h66q66 0 107.5 35t41.5 117v319q0 74 -38 111t-105 37h-72v166h64q68 0 109.5 39.5 t41.5 113.5q0 76 -51 124t-166 48q-117 0 -169 -60.5t-52 -170.5v-1057h-211z" />
<glyph unicode="&#xe0;" horiz-adv-x="1085" d="M88 305q0 135 92 217t266 82h275v74q0 100 -53.5 147t-173.5 47q-84 0 -134.5 -21.5t-93.5 -78.5l-137 129q72 82 157 116t216 34q428 0 428 -357v-694h-205v94q-59 -59 -118.5 -82.5t-157.5 -23.5q-184 0 -272.5 90t-88.5 227zM248 1559h231l154 -332h-158zM291 309 q0 -147 190 -147q74 0 114 10t83 52t43 151v84h-244q-186 0 -186 -150z" />
<glyph unicode="&#xe1;" horiz-adv-x="1085" d="M88 305q0 135 92 217t266 82h275v74q0 100 -53.5 147t-173.5 47q-84 0 -134.5 -21.5t-93.5 -78.5l-137 129q72 82 157 116t216 34q428 0 428 -357v-694h-205v94q-59 -59 -118.5 -82.5t-157.5 -23.5q-184 0 -272.5 90t-88.5 227zM291 309q0 -147 190 -147q74 0 114 10 t83 52t43 151v84h-244q-186 0 -186 -150zM420 1227l153 332h232l-227 -332h-158z" />
<glyph unicode="&#xe2;" horiz-adv-x="1085" d="M88 305q0 135 92 217t266 82h275v74q0 100 -53.5 147t-173.5 47q-84 0 -134.5 -21.5t-93.5 -78.5l-137 129q72 82 157 116t216 34q428 0 428 -357v-694h-205v94q-59 -59 -118.5 -82.5t-157.5 -23.5q-184 0 -272.5 90t-88.5 227zM174 1227l264 329h176l265 -329h-174 l-179 198l-178 -198h-174zM291 309q0 -147 190 -147q74 0 114 10t83 52t43 151v84h-244q-186 0 -186 -150z" />
<glyph unicode="&#xe3;" horiz-adv-x="1085" d="M88 305q0 135 92 217t266 82h275v74q0 100 -53.5 147t-173.5 47q-84 0 -134.5 -21.5t-93.5 -78.5l-137 129q72 82 157 116t216 34q428 0 428 -357v-694h-205v94q-59 -59 -118.5 -82.5t-157.5 -23.5q-184 0 -272.5 90t-88.5 227zM174 1374q63 63 112.5 88t100.5 25 q41 0 75 -11.5t73.5 -35t63.5 -32.5t54 -9q29 0 55.5 12t65.5 51l98 -96q-63 -63 -112 -88t-101 -25q-39 0 -75.5 12.5t-91 43t-101.5 30.5q-33 0 -55.5 -10t-63.5 -51zM291 309q0 -147 190 -147q74 0 114 10t83 52t43 151v84h-244q-186 0 -186 -150z" />
<glyph unicode="&#xe4;" horiz-adv-x="1085" d="M88 305q0 135 92 217t266 82h275v74q0 100 -53.5 147t-173.5 47q-84 0 -134.5 -21.5t-93.5 -78.5l-137 129q72 82 157 116t216 34q428 0 428 -357v-694h-205v94q-59 -59 -118.5 -82.5t-157.5 -23.5q-184 0 -272.5 90t-88.5 227zM211 1237v221h188v-221h-188zM291 309 q0 -147 190 -147q74 0 114 10t83 52t43 151v84h-244q-186 0 -186 -150zM653 1237v221h189v-221h-189z" />
<glyph unicode="&#xe5;" horiz-adv-x="1085" d="M88 305q0 135 92 217t266 82h275v74q0 100 -53.5 147t-173.5 47q-84 0 -134.5 -21.5t-93.5 -78.5l-137 129q72 82 157 116t216 34q428 0 428 -357v-694h-205v94q-59 -59 -118.5 -82.5t-157.5 -23.5q-184 0 -272.5 90t-88.5 227zM270 1435.5q0 106.5 75 181.5t181.5 75 t181 -75t74.5 -181.5t-74.5 -181t-181 -74.5t-181.5 74.5t-75 181zM291 309q0 -147 190 -147q74 0 114 10t83 52t43 151v84h-244q-186 0 -186 -150zM395 1436q0 -53 38 -91t93 -38q53 0 92 36.5t39 92.5q0 53 -37.5 91t-93.5 38q-53 0 -92 -37t-39 -92z" />
<glyph unicode="&#xe6;" horiz-adv-x="1714" d="M88 305q0 135 92 217t266 82h275v74q0 100 -53.5 147t-173.5 47q-84 0 -134.5 -21.5t-93.5 -78.5l-137 129q72 82 157 116t216 34q256 0 352 -138q113 137 307 138q205 0 323 -138.5t118 -361.5v-92h-674q0 -135 67.5 -213t196.5 -78q86 0 139 23.5t113 82.5l133 -124 q-84 -84 -171 -123t-218 -39q-121 0 -212 37.5t-155 124.5q-76 -92 -159.5 -127t-212.5 -35q-184 0 -251 67.5t-88.5 124.5t-21.5 125zM291 309q0 -147 190 -147q74 0 114 10t83 52t43 151v84h-244q-186 0 -186 -150zM928 604h467q0 80 -27 141q-25 59 -79 95.5t-128 36.5 q-150 0 -185.5 -85t-41.5 -112t-6 -76z" />
<glyph unicode="&#xe7;" horiz-adv-x="999" d="M113 520q0 272 133 401.5t329 129.5q111 0 189 -33t154 -113l-144 -139q-90 98 -199 98q-123 0 -188 -85t-65 -259q0 -176 65.5 -261t187.5 -85q63 0 104.5 20.5t94.5 77.5l144 -137q-139 -147 -343 -147q-197 0 -329.5 129t-132.5 403zM342 -432l143 301h168l-104 -301 h-207z" />
<glyph unicode="&#xe8;" horiz-adv-x="1103" d="M113 520q0 250 118.5 390.5t321.5 140.5q205 0 322.5 -138.5t117.5 -361.5v-92h-674q0 -137 69 -214t196 -77q86 0 139 23.5t113 82.5l133 -124q-84 -84 -171 -123t-218 -39q-215 0 -341 124.5t-126 407.5zM281 1559h231l154 -332h-158zM319 604h467q0 76 -28 141 q-25 59 -79 95.5t-126 36.5q-74 0 -127 -35t-80 -96.5t-27 -141.5z" />
<glyph unicode="&#xe9;" horiz-adv-x="1103" d="M113 520q0 250 118.5 390.5t321.5 140.5q205 0 322.5 -138.5t117.5 -361.5v-92h-674q0 -137 69 -214t196 -77q86 0 139 23.5t113 82.5l133 -124q-84 -84 -171 -123t-218 -39q-215 0 -341 124.5t-126 407.5zM319 604h467q0 76 -28 141q-25 59 -79 95.5t-126 36.5 q-74 0 -127 -35t-80 -96.5t-27 -141.5zM453 1227l153 332h232l-228 -332h-157z" />
<glyph unicode="&#xea;" horiz-adv-x="1103" d="M113 520q0 250 118.5 390.5t321.5 140.5q205 0 322.5 -138.5t117.5 -361.5v-92h-674q0 -137 69 -214t196 -77q86 0 139 23.5t113 82.5l133 -124q-84 -84 -171 -123t-218 -39q-215 0 -341 124.5t-126 407.5zM207 1227l264 329h176l264 -329h-174l-178 198l-178 -198h-174z M319 604h467q0 76 -28 141q-25 59 -79 95.5t-126 36.5q-74 0 -127 -35t-80 -96.5t-27 -141.5z" />
<glyph unicode="&#xeb;" horiz-adv-x="1103" d="M113 520q0 250 118.5 390.5t321.5 140.5q205 0 322.5 -138.5t117.5 -361.5v-92h-674q0 -137 69 -214t196 -77q86 0 139 23.5t113 82.5l133 -124q-84 -84 -171 -123t-218 -39q-215 0 -341 124.5t-126 407.5zM244 1237v221h188v-221h-188zM319 604h467q0 76 -28 141 q-25 59 -79 95.5t-126 36.5q-74 0 -127 -35t-80 -96.5t-27 -141.5zM686 1237v221h188v-221h-188z" />
<glyph unicode="&#xec;" horiz-adv-x="540" d="M166 0v1038h209v-1038h-209zM166 1559h231l154 -332h-158z" />
<glyph unicode="&#xed;" horiz-adv-x="540" d="M166 0v1038h209v-1038h-209zM166 1227l153 332h232l-227 -332h-158z" />
<glyph unicode="&#xee;" horiz-adv-x="540" d="M166 0v1038h209v-1038h-209zM166 1227l264 329h176l264 -329h-174l-178 198l-178 -198h-174z" />
<glyph unicode="&#xef;" horiz-adv-x="540" d="M166 0v1038h209v-1038h-209zM166 1237v221h188v-221h-188zM608 1237v221h189v-221h-189z" />
<glyph unicode="&#xf1;" horiz-adv-x="1163" d="M166 0v1038h205v-104q109 117 276 117q80 0 144.5 -23.5t117 -75t76 -123t23.5 -165.5v-664h-209v633q0 117 -57.5 174t-151.5 57t-154.5 -58t-60.5 -173v-633h-209zM236 1374q63 63 112 88t101 25q41 0 74.5 -11.5t73.5 -35t63.5 -32.5t54.5 -9q29 0 55.5 12t65.5 51 l98 -96q-63 -63 -112.5 -88t-100.5 -25q-39 0 -76 12.5t-91 43t-101 30.5q-33 0 -55.5 -10t-63.5 -51z" />
<glyph unicode="&#xf2;" horiz-adv-x="1099" d="M117 520q0 139 26.5 237.5t89 163t138 97.5t178.5 33q100 0 178 -33t140.5 -98.5t89 -161.5t26.5 -237.5t-26.5 -240t-96.5 -169.5q-55 -57 -132 -90t-179 -33q-100 0 -177 32.5t-139.5 98t-89 162t-26.5 239.5zM256 1559h231l154 -332h-158zM326 520q0 -109 13 -174 t66.5 -118.5t143.5 -53.5q92 0 144 52.5t66.5 123t14.5 170.5q0 109 -13 174.5t-59 110.5q-59 59 -153 59q-92 0 -143.5 -51t-65.5 -122t-14 -171z" />
<glyph unicode="&#xf3;" horiz-adv-x="1099" d="M117 520q0 139 26.5 237.5t89 163t138 97.5t178.5 33q100 0 178 -33t140.5 -98.5t89 -161.5t26.5 -237.5t-26.5 -240t-96.5 -169.5q-55 -57 -132 -90t-179 -33q-100 0 -177 32.5t-139.5 98t-89 162t-26.5 239.5zM326 520q0 -109 13 -174t66.5 -118.5t143.5 -53.5 q92 0 144 52.5t66.5 123t14.5 170.5q0 109 -13 174.5t-59 110.5q-59 59 -153 59q-92 0 -143.5 -51t-65.5 -122t-14 -171zM442 1227l154 332h231l-227 -332h-158z" />
<glyph unicode="&#xf4;" horiz-adv-x="1099" d="M117 520q0 139 26.5 237.5t89 163t138 97.5t178.5 33q100 0 178 -33t140.5 -98.5t89 -161.5t26.5 -237.5t-26.5 -240t-96.5 -169.5q-55 -57 -132 -90t-179 -33q-100 0 -177 32.5t-139.5 98t-89 162t-26.5 239.5zM197 1227l264 329h176l264 -329h-174l-178 198l-178 -198 h-174zM326 520q0 -109 13 -174t66.5 -118.5t143.5 -53.5q92 0 144 52.5t66.5 123t14.5 170.5q0 109 -13 174.5t-59 110.5q-59 59 -153 59q-92 0 -143.5 -51t-65.5 -122t-14 -171z" />
<glyph unicode="&#xf5;" horiz-adv-x="1099" d="M117 520q0 139 26.5 237.5t89 163t138 97.5t178.5 33q100 0 178 -33t140.5 -98.5t89 -161.5t26.5 -237.5t-26.5 -240t-96.5 -169.5q-55 -57 -132 -90t-179 -33q-100 0 -177 32.5t-139.5 98t-89 162t-26.5 239.5zM197 1374q63 63 112 88t101 25q41 0 74.5 -11.5t73.5 -35 t63.5 -32.5t54.5 -9q29 0 55.5 12t65.5 51l98 -96q-63 -63 -112.5 -88t-100.5 -25q-39 0 -76 12.5t-91 43t-101 30.5q-33 0 -55.5 -10t-63.5 -51zM326 520q0 -109 13 -174t66.5 -118.5t143.5 -53.5q92 0 144 52.5t66.5 123t14.5 170.5q0 109 -13 174.5t-59 110.5 q-59 59 -153 59q-92 0 -143.5 -51t-65.5 -122t-14 -171z" />
<glyph unicode="&#xf6;" horiz-adv-x="1099" d="M117 520q0 139 26.5 237.5t89 163t138 97.5t178.5 33q100 0 178 -33t140.5 -98.5t89 -161.5t26.5 -237.5t-26.5 -240t-96.5 -169.5q-55 -57 -132 -90t-179 -33q-100 0 -177 32.5t-139.5 98t-89 162t-26.5 239.5zM233 1237v221h189v-221h-189zM326 520q0 -109 13 -174 t66.5 -118.5t143.5 -53.5q92 0 144 52.5t66.5 123t14.5 170.5q0 109 -13 174.5t-59 110.5q-59 59 -153 59q-92 0 -143.5 -51t-65.5 -122t-14 -171zM676 1237v221h188v-221h-188z" />
<glyph unicode="&#xf7;" d="M98 471v195h893v-195h-893zM434 68v223h223v-223h-223zM434 848v223h223v-223h-223z" />
<glyph unicode="&#xf8;" horiz-adv-x="1099" d="M117 520q0 139 26.5 237.5t89 163t138 97.5t178.5 33q61 0 115.5 -13.5t99.5 -38.5l76 129h141l-121 -200q70 -74 96.5 -170t26.5 -237.5t-26.5 -240t-96.5 -169.5q-55 -57 -132 -90t-179 -33q-59 0 -113.5 13t-99.5 38l-76 -129h-141l119 203q-68 72 -94.5 170 t-26.5 237zM326 520q0 -80 5 -128t25 -95l316 532q-53 35 -123 35q-92 0 -143.5 -51t-65.5 -122t-14 -171zM428 211q53 -37 121 -37q92 0 144 52.5t66.5 123t14.5 170.5q0 80 -5 128t-26 95z" />
<glyph unicode="&#xf9;" horiz-adv-x="1163" d="M156 375v663h209v-632q0 -117 57 -174.5t151.5 -57.5t154.5 58.5t60 173.5v632h209v-1038h-204v104q-109 -117 -277 -116q-80 0 -144.5 23.5t-116.5 74.5t-75.5 123t-23.5 166zM297 1559h231l154 -332h-158z" />
<glyph unicode="&#xfa;" horiz-adv-x="1163" d="M156 375v663h209v-632q0 -117 57 -174.5t151.5 -57.5t154.5 58.5t60 173.5v632h209v-1038h-204v104q-109 -117 -277 -116q-80 0 -144.5 23.5t-116.5 74.5t-75.5 123t-23.5 166zM469 1227l154 332h231l-227 -332h-158z" />
<glyph unicode="&#xfb;" horiz-adv-x="1163" d="M156 375v663h209v-632q0 -117 57 -174.5t151.5 -57.5t154.5 58.5t60 173.5v632h209v-1038h-204v104q-109 -117 -277 -116q-80 0 -144.5 23.5t-116.5 74.5t-75.5 123t-23.5 166zM223 1227l264 329h177l264 -329h-174l-179 198l-178 -198h-174z" />
<glyph unicode="&#xfc;" horiz-adv-x="1163" d="M156 375v663h209v-632q0 -117 57 -174.5t151.5 -57.5t154.5 58.5t60 173.5v632h209v-1038h-204v104q-109 -117 -277 -116q-80 0 -144.5 23.5t-116.5 74.5t-75.5 123t-23.5 166zM260 1237v221h189v-221h-189zM702 1237v221h189v-221h-189z" />
<glyph unicode="&#xfd;" horiz-adv-x="958" d="M16 1038h222l247 -731l242 731h223l-458 -1245q-29 -82 -73 -126t-97.5 -61.5t-118.5 -17.5h-84v189h53q66 0 95.5 22.5t54.5 87.5l57 162zM406 1174l153 331h232l-228 -331h-157z" />
<glyph unicode="&#xff;" horiz-adv-x="958" d="M16 1038h222l247 -731l242 731h223l-458 -1245q-29 -82 -73 -126t-97.5 -61.5t-118.5 -17.5h-84v189h53q66 0 95.5 22.5t54.5 87.5l57 162zM164 1237v221h188v-221h-188zM606 1237v221h189v-221h-189z" />
<glyph unicode="&#x152;" horiz-adv-x="2000" d="M137 729q0 256 21.5 374t146.5 242.5t352 124.5q92 0 170 -31.5t138 -99.5v119h921v-196h-700v-431h596v-192h-596v-442h702v-197h-923v119q-59 -68 -139.5 -99.5t-168.5 -31.5q-227 0 -351 124t-146.5 245.5t-22.5 371.5zM360 729q0 -229 15.5 -310t85 -157t201.5 -76 q63 0 121.5 25t103.5 74t61.5 136t16.5 308q0 229 -15.5 310t-70.5 143q-39 43 -95.5 66.5t-121.5 23.5q-63 0 -120 -24.5t-103 -74t-62.5 -136.5t-16.5 -308z" />
<glyph unicode="&#x153;" horiz-adv-x="1765" d="M117 520q0 139 26.5 237.5t89 163t138 97.5t178.5 33q115 0 200 -42t136 -124q109 166 327 166q205 0 323 -138.5t118 -361.5v-92h-674q0 -137 68.5 -214t195.5 -77q86 0 139.5 23.5t112.5 82.5l133 -124q-86 -86 -170 -124t-217 -38q-119 0 -209 40t-149 124 q-49 -76 -136.5 -120t-197.5 -44q-100 0 -177 32.5t-139.5 98t-89 162t-26.5 239.5zM326 520q0 -109 13 -174t66.5 -118.5t143.5 -53.5q92 0 144 52.5t66.5 123t14.5 170.5q0 109 -13 174.5t-59 110.5q-59 59 -153 59q-92 0 -143.5 -51t-65.5 -122t-14 -171zM979 604h467 q0 80 -27 141q-25 59 -79 95.5t-128 36.5q-150 0 -185.5 -85t-41.5 -112t-6 -76z" />
<glyph unicode="&#x178;" horiz-adv-x="1114" d="M10 1458h242l305 -641l305 641h242l-436 -858v-600h-222v600zM242 1610v221h188v-221h-188zM684 1610v221h188v-221h-188z" />
<glyph unicode="&#x2c6;" horiz-adv-x="1169" d="M137 821l352 652h191l350 -652h-217l-229 424l-230 -424h-217z" />
<glyph unicode="&#x2dc;" horiz-adv-x="491" d="M-348 244q63 63 112.5 87.5t100.5 24.5q41 0 74.5 -11t73.5 -34.5t63.5 -33t54.5 -9.5q29 0 55.5 12.5t65.5 51.5l98 -96q-63 -63 -112.5 -88t-100.5 -25q-39 0 -75.5 12t-91 43t-101.5 31q-33 0 -55.5 -10.5t-63.5 -51.5z" />
<glyph unicode="&#x2013;" d="M104 471v195h883v-195h-883z" />
<glyph unicode="&#x2014;" horiz-adv-x="1990" d="M137 473v199h1716v-199h-1716z" />
<glyph unicode="&#x2018;" horiz-adv-x="548" d="M160 1245v213l229 191v-404h-229z" />
<glyph unicode="&#x2019;" horiz-adv-x="548" d="M160 1057v401h229v-215z" />
<glyph unicode="&#x201a;" horiz-adv-x="546" d="M160 -188v403h229v-215z" />
<glyph unicode="&#x201c;" horiz-adv-x="940" d="M160 1245v213l229 191v-404h-229zM551 1245v213l229 191v-404h-229z" />
<glyph unicode="&#x201d;" horiz-adv-x="940" d="M160 1057v401h229v-215zM551 1057v401h229v-215z" />
<glyph unicode="&#x201e;" horiz-adv-x="942" d="M160 -188v403h229v-215zM551 -188v403h229v-215z" />
<glyph unicode="&#x2022;" horiz-adv-x="1048" d="M190 684q0 139 97.5 236.5t237 97.5t236.5 -97.5t97 -236.5t-97 -236.5t-236.5 -97.5t-237 97.5t-97.5 236.5z" />
<glyph unicode="&#x2026;" horiz-adv-x="1644" d="M160 0v240h239v-240h-239zM702 0v240h240v-240h-240zM1245 0v240h240v-240h-240z" />
<glyph unicode="&#x2039;" horiz-adv-x="694" d="M76 557l471 469v-252l-219 -217l219 -219v-252z" />
<glyph unicode="&#x203a;" horiz-adv-x="694" d="M147 86v252l222 219l-222 217v252l474 -469z" />
<glyph unicode="&#x2122;" horiz-adv-x="1808" d="M84 1317v141h625v-141h-236v-733h-156v733h-233zM854 584v874h158l256 -497l258 497h157v-874h-157v571l-185 -367h-145l-184 367v-571h-158z" />
<glyph unicode="&#xe000;" horiz-adv-x="1040" d="M0 1040h1040v-1040h-1040v1040z" />
<glyph unicode="&#xfb01;" horiz-adv-x="1212" d="M80 860v160h119v160q0 123 72.5 205.5t211.5 82.5h131v-178h-92q-115 0 -114 -121v-149h206v-160h-206v-860h-209v860h-119zM831 1243v221h222v-221h-222zM838 0v1038h209v-1038h-209z" />
<glyph unicode="&#xfb02;" horiz-adv-x="1308" d="M80 860v160h119v160q0 123 72.5 205.5t211.5 82.5h131v-178h-92q-115 0 -114 -121v-149h206v-160h-206v-860h-209v860h-119zM831 287v1171h209v-1159q0 -61 26 -91t87 -30h92v-178h-129q-141 0 -213 81t-72 206z" />
<glyph unicode="&#xfb03;" horiz-adv-x="1884" d="M80 860v160h119v160q0 123 72.5 205.5t211.5 82.5h131v-178h-92q-115 0 -114 -121v-149h206v-160h-206v-860h-209v860h-119zM752 860v160h118v160q0 123 73 205.5t212 82.5h131v-178h-92q-115 0 -115 -121v-149h207v-160h-207v-860h-209v860h-118zM1503 1243v221h221 v-221h-221zM1509 0v1038h209v-1038h-209z" />
<glyph unicode="&#xfb04;" horiz-adv-x="1980" d="M80 860v160h119v160q0 123 72.5 205.5t211.5 82.5h131v-178h-92q-115 0 -114 -121v-149h206v-160h-206v-860h-209v860h-119zM752 860v160h118v160q0 123 73 205.5t212 82.5h131v-178h-92q-115 0 -115 -121v-149h207v-160h-207v-860h-209v860h-118zM1503 287v1171h209 v-1159q0 -61 25.5 -91t87.5 -30h92v-178h-129q-141 0 -213 81t-72 206z" />
</font>
</defs>
</svg>
